<?xml version="1.0" encoding="UTF-8" standalone="no"?><!DOCTYPE svg PUBLIC "-//W3C//DTD SVG 1.1//EN" "http://www.w3.org/Graphics/SVG/1.1/DTD/svg11.dtd"><svg width="100%" height="100%" viewBox="0 0 300 300" version="1.1" xmlns="http://www.w3.org/2000/svg" xmlns:xlink="http://www.w3.org/1999/xlink" xml:space="preserve" xmlns:serif="http://www.serif.com/" style="fill-rule:evenodd;clip-rule:evenodd;stroke-linecap:round;stroke-linejoin:round;stroke-miterlimit:1.5;"><g><path id="file-o" d="M42.143,52.949l0,-24.378c0,-8.043 6.528,-14.571 14.571,-14.571l156,0c8.044,0 19.273,4.702 24.888,10.317l27.367,27.366c5.615,5.615 10.317,16.845 10.317,24.888l0,194.858c0,8.043 -6.528,14.571 -14.572,14.571l-204,0c-8.043,0 -14.571,-6.528 -14.571,-14.571l0,-134.489l19.438,0l0,129.631l194.286,0l0,-185.428l-33.143,0c-8.043,0 -14.571,-6.528 -14.571,-14.572l0,-33.142l-146.572,0l0,19.52l-19.438,0Z" style="fill:#ef5f5f;fill-rule:nonzero;"/><g><rect x="24.714" y="59.838" width="152" height="69.244" style="fill:#ed5455;"/><text x="35.644px" y="117.735px" style="font-family:'Rubik-Regular', 'Rubik';font-size:66.5px;fill:#fff;">PDF</text></g><g><path d="M99.714,172.778l118,0" style="fill:none;stroke:#ed5455;stroke-width:19px;"/><path d="M99.714,202.778l118,0" style="fill:none;stroke:#ed5455;stroke-width:19px;"/><path d="M99.714,232.778l118,0" style="fill:none;stroke:#ed5455;stroke-width:19px;"/></g></g></svg>